<?xml version="1.0" encoding="UTF-8"?><svg id="b" xmlns="http://www.w3.org/2000/svg" width="280" height="68.29" viewBox="0 0 280 68.29"><defs><style>.d{fill:#fff;}.e{fill:#ec1c24;}.f{fill:#790008;}</style></defs><g id="c"><rect class="f" width="47.56" height="47.56"/><polygon class="d" points="31.74 9.1 6.37 9.1 17.52 23.78 42.89 23.78 31.74 9.1"/><polygon class="e" points="42.89 23.78 17.52 23.78 6.37 38.8 31.74 38.8 42.89 23.78"/><path class="f" d="m166.12,23.55c1.37-.8,3.53-2.84,3.53-6.37,0-5.46-3.53-8.65-9.67-8.65h-12.4v30.95h13.08c5.8,0,9.33-3.41,9.33-8.87.34-4.32-2.28-6.37-3.87-7.05m-12.06-9.56h5.69c2.39,0,3.75,1.37,3.75,3.41s-1.48,3.41-3.75,3.41h-5.69v-6.83Zm6.14,19.68h-5.92v-7.28h5.92c2.84,0,3.98,1.93,3.98,3.53-.11,1.93-1.25,3.75-3.98,3.75m-36.64-5.58c-.11-.46-11.04-19.8-11.04-19.8h-6.26v30.95h6.26v-18.43c.46.8,10.7,18.77,10.7,18.77,0,0,10.13-17.86,10.7-18.77v18.43h6.26V8.31h-5.92s-10.58,19.46-10.7,19.8m-31.06,11.15h6.26V8.31h-6.26v30.95Zm-10.24-7.28c-1.93,1.48-3.98,2.28-6.37,2.28-5.69,0-10.01-4.44-10.01-10.13s4.32-10.13,10.01-10.13c2.28,0,4.44.8,6.37,2.28h.11l4.32-4.32h-.11c-2.96-2.62-6.83-3.98-10.7-3.98-9.1,0-16.61,7.28-16.61,16.38s7.28,16.38,16.61,16.38c3.98,0,7.74-1.48,10.7-3.98h.11l-4.44-4.78h0Z"/><polygon class="f" points="193.42 39.25 193.42 12.17 183.18 12.17 183.18 8.31 207.76 8.31 207.76 12.17 197.52 12.17 197.52 39.25 193.42 39.25"/><polygon class="f" points="212.2 39.25 212.2 8.31 216.06 8.31 216.06 21.28 232.33 21.28 232.33 8.31 236.32 8.31 236.32 39.25 232.33 39.25 232.33 24.8 216.06 24.8 216.06 39.25 212.2 39.25"/><path class="f" d="m239.73,39.25l11.95-30.95h4.32l12.63,30.95h-4.78l-3.53-9.33h-13.08l-3.41,9.33h-4.1Zm8.99-12.63h10.58l-3.3-8.53c-.91-2.62-1.82-4.78-2.28-6.37-.46,2.05-.91,3.98-1.82,5.8l-3.19,9.1Z"/><rect class="f" x="272.73" y="8.31" width="4.21" height="30.95"/><path class="f" d="m69.16,62.92c0,1.06-.16,1.92-.47,2.59-.32.67-.74,1.19-1.27,1.56-.53.37-1.14.63-1.84.77-.7.14-1.44.21-2.21.21h-7.06v-7.15h3.15v4.6h3.21c.44,0,.86-.03,1.27-.09.41-.06.77-.18,1.09-.36.31-.18.56-.43.74-.75s.26-.74.25-1.27c-.02-.4-.12-.75-.29-1.03-.17-.28-.4-.51-.69-.7s-.63-.33-1.03-.43c-.39-.1-.82-.17-1.28-.22-.89-.08-1.75-.17-2.57-.26-.82-.09-1.54-.25-2.17-.49-.63-.24-1.13-.58-1.49-1.03-.36-.45-.53-1.09-.49-1.91.02-.57.19-1.09.51-1.55.31-.46.75-.86,1.3-1.2.55-.33,1.21-.59,1.98-.78.77-.18,1.61-.28,2.52-.28.82,0,1.61.07,2.38.21.77.14,1.46.38,2.07.72s1.12.78,1.52,1.34c.4.55.65,1.23.75,2.04h-3.14c-.08-.33-.25-.61-.5-.83s-.55-.4-.89-.54c-.35-.14-.73-.23-1.14-.29-.42-.06-.83-.09-1.23-.09s-.81.03-1.17.09c-.36.06-.68.14-.94.25-.27.11-.48.24-.64.39-.16.15-.24.32-.24.5,0,.19.12.34.36.46s.55.2.94.27.83.12,1.33.17c.5.05,1.02.1,1.55.14.75.07,1.47.2,2.17.37.7.18,1.32.45,1.86.81.54.36.97.84,1.3,1.45.33.6.49,1.36.49,2.29Z"/><path class="f" d="m80.99,68.04v-2.02c-.25.29-.55.56-.9.83-.35.27-.74.51-1.16.71-.42.21-.87.37-1.34.5-.47.12-.95.19-1.43.19-.81,0-1.53-.1-2.17-.29-.64-.2-1.18-.49-1.63-.88-.45-.39-.8-.89-1.03-1.49-.24-.6-.36-1.31-.36-2.11v-10.04h3.15v10.08c0,.79.23,1.35.7,1.7.47.35,1.06.53,1.77.53.63,0,1.21-.12,1.75-.36s1-.53,1.39-.87c.39-.34.7-.72.92-1.12.22-.4.33-.78.33-1.12v-8.83h3.14v14.61h-3.14Z"/><path class="f" d="m89.57,68.04v-10.31c0-.32-.1-.61-.29-.87s-.46-.46-.82-.62c-.36-.16-.79-.26-1.31-.31-.52-.05-1.1-.02-1.76.09v-2.55c1.01-.17,1.96-.21,2.85-.12s1.67.28,2.33.6c.66.32,1.18.75,1.56,1.29.38.55.57,1.2.57,1.96v10.85h-3.14Z"/><path class="f" d="m104.89,68.04v-9.94c0-.44-.1-.81-.29-1.11-.19-.3-.45-.54-.77-.73-.32-.19-.69-.33-1.11-.41-.42-.08-.84-.12-1.28-.12s-.88.04-1.29.12-.77.22-1.09.41c-.31.19-.57.43-.76.73-.19.3-.29.67-.29,1.11v1.28h4.44v2.69h-4.44v5.96h-3.15v-9.97c0-.86.2-1.59.59-2.21.39-.62.9-1.13,1.53-1.52.63-.4,1.34-.69,2.12-.88.78-.19,1.56-.29,2.33-.29s1.59.1,2.37.29c.78.19,1.49.48,2.11.88.62.4,1.13.91,1.51,1.52.39.62.58,1.36.58,2.21v9.97h-3.14Z"/><path class="f" d="m113.46,68.04v-10.31c0-.32-.1-.61-.29-.87s-.46-.46-.82-.62c-.36-.16-.79-.26-1.31-.31-.52-.05-1.1-.02-1.76.09v-2.55c1.01-.17,1.96-.21,2.85-.12s1.67.28,2.33.6c.66.32,1.18.75,1.56,1.29.38.55.57,1.2.57,1.96v10.85h-3.14Z"/><path class="f" d="m131.27,63.26c0,.99-.19,1.8-.57,2.45-.38.65-.88,1.16-1.51,1.54-.62.38-1.33.65-2.13.8-.8.15-1.61.23-2.44.23s-1.64-.08-2.42-.24c-.78-.16-1.47-.45-2.09-.87-.61-.42-1.1-1-1.48-1.75s-.57-1.7-.6-2.86h3.19c0,.64.1,1.17.3,1.58.2.41.46.73.78.97.32.24.68.4,1.09.49.4.09.81.13,1.21.13.46,0,.91-.04,1.33-.12.42-.08.79-.21,1.11-.39.32-.18.58-.43.78-.73s.29-.68.29-1.13c0-.38-.1-.7-.29-.95s-.43-.45-.73-.6c-.3-.15-.63-.26-1-.34-.37-.08-.73-.13-1.09-.17-.88-.08-1.72-.18-2.51-.29-.8-.11-1.5-.29-2.1-.54-.61-.26-1.09-.62-1.45-1.11-.36-.48-.54-1.14-.54-1.97,0-.62.16-1.19.49-1.71s.77-.97,1.32-1.35c.55-.38,1.2-.67,1.94-.87.74-.21,1.54-.31,2.38-.31.78,0,1.56.08,2.33.24.77.16,1.46.42,2.07.79.61.37,1.11.85,1.51,1.45.39.6.61,1.33.64,2.2h-3.15c-.04-.39-.17-.72-.39-.99-.23-.27-.5-.49-.83-.66s-.69-.29-1.09-.37c-.4-.07-.78-.11-1.15-.11s-.73.03-1.08.1-.66.16-.94.29-.49.29-.66.47c-.17.18-.25.4-.25.63,0,.25.12.45.35.61s.53.28.9.37c.37.09.78.16,1.25.21s.93.1,1.41.14c.74.07,1.46.19,2.16.35.7.16,1.32.41,1.86.76.54.34.97.81,1.3,1.38.33.58.49,1.32.49,2.22Z"/><path class="f" d="m142.07,51.59v-1.96h8.71v-1.87h3.15v3.83h-11.87Z"/><path class="f" d="m162.74,47.72c.01.26-.04.48-.14.66-.11.18-.23.35-.36.52-.13.17-.25.34-.36.53-.11.18-.16.41-.16.67v17.94h-3.14v-17.91c0-.27.05-.5.16-.67s.23-.33.37-.46c.14-.14.26-.26.37-.37.11-.11.16-.24.16-.38,0-.11-.06-.18-.19-.22-.13-.04-.27-.06-.44-.06h-.25l-1.57,1.02-3.58-1.98,1.91-1.27,1.64,1.02,1.32-.77h1.6c.32,0,.64.03.95.09.31.06.6.16.85.29.25.13.45.31.61.54s.24.51.25.84Z"/><path class="f" d="m179.49,60.73c0,1.32-.2,2.46-.59,3.42-.39.96-.93,1.74-1.6,2.35-.68.61-1.47,1.06-2.39,1.36-.91.29-1.89.44-2.92.44s-2.01-.15-2.92-.44c-.91-.29-1.71-.74-2.39-1.36-.68-.61-1.21-1.4-1.61-2.35-.4-.96-.6-2.1-.6-3.42,0-.32.02-.69.05-1.11.04-.42.1-.79.2-1.12h5.84v2.43h-2.96c.01.8.13,1.5.35,2.1.22.6.52,1.1.91,1.51.39.4.84.71,1.37.91.53.2,1.11.3,1.76.3s1.23-.11,1.77-.32c.54-.21,1-.53,1.38-.95.38-.42.68-.94.89-1.57.21-.63.32-1.36.32-2.18s-.11-1.54-.32-2.17c-.21-.62-.51-1.14-.89-1.56-.38-.42-.84-.73-1.38-.95-.54-.21-1.13-.32-1.77-.32-.51,0-.96.05-1.34.16-.38.11-.71.25-1,.43-.28.18-.52.38-.71.6-.19.22-.36.44-.5.67h-3.48c.23-.64.54-1.23.94-1.77s.89-1.01,1.46-1.4c.58-.39,1.25-.7,2.02-.92s1.64-.33,2.6-.33c1.03,0,2.01.15,2.92.44.92.29,1.71.74,2.39,1.36.68.61,1.21,1.4,1.6,2.36.39.96.59,2.1.59,3.42Z"/><path class="f" d="m181.87,68.04v-14.61h3.15v14.61h-3.15Z"/><path class="f" d="m202.41,60.73c0,1.32-.2,2.46-.59,3.42-.39.96-.93,1.74-1.6,2.35-.68.61-1.47,1.06-2.39,1.36-.91.29-1.89.44-2.92.44s-2.01-.15-2.92-.44c-.91-.29-1.71-.74-2.39-1.36-.68-.61-1.21-1.4-1.61-2.35-.4-.96-.6-2.1-.6-3.42,0-.32.02-.69.05-1.11.04-.42.1-.79.2-1.12h5.84v2.43h-2.96c.01.8.13,1.5.35,2.1.22.6.52,1.1.91,1.51.39.4.84.71,1.37.91.53.2,1.11.3,1.76.3s1.23-.11,1.77-.32c.54-.21,1-.53,1.38-.95.38-.42.68-.94.89-1.57.21-.63.32-1.36.32-2.18s-.11-1.54-.32-2.17c-.21-.62-.51-1.14-.89-1.56-.38-.42-.84-.73-1.38-.95-.54-.21-1.13-.32-1.77-.32-.51,0-.96.05-1.34.16-.38.11-.71.25-1,.43-.28.18-.52.38-.71.6-.19.22-.36.44-.5.67h-3.48c.23-.64.54-1.23.94-1.77s.89-1.01,1.46-1.4c.58-.39,1.25-.7,2.02-.92s1.64-.33,2.6-.33c1.03,0,2.01.15,2.92.44.92.29,1.71.74,2.39,1.36.68.61,1.21,1.4,1.6,2.36.39.96.59,2.1.59,3.42Z"/><path class="f" d="m194.32,48.06c-.54,0-.96.09-1.28.27-.32.18-.48.45-.48.82,0,.17.04.31.12.43.08.12.15.21.22.27h1.19l3.14-1.36,3.72,1.5v2.12l-3.64-1.53-2.85,1.21-2.99-.04c-.15-.1-.31-.22-.47-.37-.16-.15-.31-.33-.44-.54-.13-.21-.24-.45-.32-.71s-.12-.56-.12-.88c0-.39.08-.77.25-1.13.17-.36.41-.68.73-.95.32-.27.72-.49,1.19-.66.48-.17,1.03-.25,1.66-.25h7.59v1.8h-7.22Z"/><path class="f" d="m216.85,65.59c-.24.6-.58,1.1-1.03,1.49-.45.39-1,.69-1.64.88-.64.2-1.36.29-2.16.29-.49,0-.97-.06-1.43-.19s-.91-.29-1.34-.5c-.42-.21-.8-.45-1.15-.71-.34-.27-.64-.54-.89-.83v2.02h-3.15v-14.61h3.15v8.83c0,.34.11.72.33,1.12.22.4.52.78.91,1.12.39.35.85.64,1.38.87.53.24,1.12.36,1.75.36.71,0,1.31-.18,1.78-.53.48-.35.71-.92.71-1.7v-10.08h3.14v10.04c0,.81-.12,1.51-.36,2.11Z"/><path class="f" d="m231.97,65.55c-.37.62-.86,1.14-1.46,1.54s-1.3.7-2.09.9c-.79.2-1.61.29-2.47.29s-1.7-.1-2.49-.29c-.79-.2-1.49-.5-2.09-.9-.61-.4-1.09-.92-1.45-1.54-.36-.62-.54-1.36-.54-2.22v-9.9h3.15v9.72c0,.45.09.84.28,1.16.18.32.43.59.75.8s.68.37,1.1.47c.42.1.85.15,1.3.15s.89-.05,1.3-.15.78-.26,1.1-.47c.32-.21.57-.48.76-.8s.29-.71.29-1.16v-9.72h3.14v9.9c0,.86-.18,1.6-.55,2.22Z"/><path class="f" d="m220.66,51.59v-1.96h8.71v-1.87h3.15v3.83h-11.87Z"/><path class="f" d="m249.08,47.72c.01.26-.04.48-.14.66-.11.18-.23.35-.36.52-.13.17-.25.34-.36.53-.11.18-.16.41-.16.67v17.94h-3.14v-17.91c0-.27.05-.5.16-.67s.23-.33.37-.46c.14-.14.26-.26.37-.37.11-.11.16-.24.16-.38,0-.11-.06-.18-.19-.22-.13-.04-.27-.06-.44-.06h-.25l-1.57,1.02-3.58-1.98,1.91-1.27,1.64,1.02,1.32-.77h1.6c.32,0,.64.03.95.09.31.06.6.16.85.29.25.13.45.31.61.54s.24.51.25.84Z"/><path class="f" d="m261.36,68.04v-10.08c0-.78-.24-1.35-.71-1.7-.48-.35-1.07-.53-1.78-.53-.63,0-1.21.12-1.75.36-.54.24-1,.53-1.38.87-.39.35-.69.72-.91,1.12-.22.4-.33.77-.33,1.11v8.85h-3.15v-14.61h3.15v2c.25-.29.55-.56.89-.82.34-.26.73-.5,1.15-.7.42-.21.87-.37,1.34-.5.47-.13.95-.19,1.43-.19,1.6,0,2.87.39,3.8,1.18.93.78,1.39,1.99,1.39,3.6v10.04h-3.14Z"/><path class="f" d="m272.96,68.18c-2.21.06-3.9-.31-5.06-1.11s-1.73-2.03-1.69-3.71c.01-.4.09-.79.24-1.15.15-.36.34-.7.58-1s.52-.56.84-.78.65-.37,1-.48c-.26-.06-.53-.16-.8-.3-.27-.14-.52-.33-.74-.56-.22-.23-.4-.51-.54-.83-.14-.32-.21-.69-.21-1.11,0-.87.26-1.61.79-2.24.53-.62,1.24-1.07,2.13-1.35.5-.14,1.09-.22,1.78-.23.69-.01,1.35.03,1.98.12v2.55c-.5-.1-.96-.15-1.39-.15-.43,0-.8.04-1.12.13-.32.09-.57.24-.76.43s-.28.43-.28.73.08.51.23.68.36.3.61.39c.25.1.53.16.85.19.32.03.65.04.98.04h1.39v2.57h-1c-1.14,0-1.99.22-2.55.66-.56.44-.84,1-.84,1.68,0,.46.1.84.31,1.13.21.29.49.52.86.69.36.17.78.28,1.26.34.48.06,1,.08,1.54.07l3.51-.07v-12.09h3.14v14.61l-7.04.14Z"/><path class="f" d="m154.01,60.74c-.17-.45-.39-.86-.66-1.23-.27-.37-.59-.69-.95-.96-.36-.27-.74-.48-1.13-.62.33-.17.67-.39,1-.68.33-.29.62-.62.85-1.01.24-.39.41-.82.53-1.29.11-.48.12-.98.03-1.52h-3.07c.06.61.02,1.11-.12,1.52-.14.41-.34.74-.6.98-.26.24-.56.42-.9.52-.35.1-.69.15-1.03.15h-1.1v2.52h1.1c.45,0,.87.08,1.26.23s.72.37,1.01.65c.29.28.51.61.67.99.16.38.24.79.24,1.23,0,.57-.12,1.07-.36,1.51s-.55.79-.94,1.07c-.39.28-.84.49-1.34.62-.51.14-1.03.19-1.56.17l-2.33-.07v-5.78c0-.23.05-.42.14-.59.09-.17.21-.33.36-.48.14-.15.29-.31.45-.47.16-.16.31-.34.45-.55.14-.21.26-.46.36-.74.09-.29.14-.63.14-1.03,0-.93-.23-1.61-.7-2.03-.47-.43-1.22-.6-2.25-.52l-1.14.91-1.12-.98-1.27,1.08-1.55,1.31,1.31,1.02.87-.8,1.09.93,1.64-1.39s.08.11.12.18c.02.06.05.14.08.24s.04.22.04.35c0,.21-.05.4-.16.54s-.24.29-.4.43-.33.27-.52.4c-.18.13-.36.28-.52.46s-.29.37-.4.61c-.11.23-.16.51-.16.83v8.62l5.6.07c1.01.01,1.95-.1,2.83-.33.88-.23,1.64-.59,2.29-1.08.65-.49,1.16-1.11,1.53-1.86.37-.75.56-1.63.56-2.66,0-.51-.08-.99-.25-1.44Z"/></g></svg>