<?xml version="1.0" encoding="UTF-8"?><svg id="b" xmlns="http://www.w3.org/2000/svg" width="220" height="100" viewBox="0 0 220 100"><defs><style>.d{fill:#de1a22;}.e{fill:#e01a23;}.f{fill:#df1b23;}.g{fill:#de1a24;}.h{fill:#de1a23;}.i{fill:#e01a22;}.j{fill:#dd1b23;}.k{fill:#dd1a23;}.l{fill:#dd1b24;}.m{fill:#df1923;}.n{fill:#df1a22;}.o{fill:#df1a23;}</style></defs><g id="c"><path class="i" d="m8.11,35.72c0-.63,0-1.18,0-1.73-1.17-.1-2.27-.17-3.37-.28C2.33,33.46.04,30.97.04,28.6c0-3.37.03-6.75-.02-10.12-.01-1.11.52-1.84,1.4-2.34,3.8-2.15,7.61-4.26,11.42-6.4,5.12-2.88,10.23-5.78,15.35-8.64.74-.41,1.52-.81,2.33-1.03,1.03-.27,1.94.22,2.82.74,4.44,2.62,8.89,5.22,13.34,7.82,3.45,2.02,6.89,4.05,10.35,6.07,3.22,1.87,6.43,3.75,9.67,5.59,1.41.8,2.2,1.76,2.16,3.53-.11,5.61-.04,11.22-.04,16.83,0,2.79-2.85,5.63-5.68,5.66-.75,0-1.51,0-2.33,0v6.48c1.72,0,3.45,0,5.18,0,1.28,0,2.17.6,2.67,1.74.11.24.15.52.15.79,0,3.23,0,6.47,0,9.7,0,1.02-.76,2.07-1.76,2.35-5.76,1.61-11.52,3.21-17.28,4.82-3.63,1.02-7.26,2.05-10.89,3.07-.78.22-1.54.18-2.33-.06-7.24-2.26-14.49-4.47-21.72-6.76-2.06-.65-4.12-1.03-6.29-.92-1.87.09-3.76,0-5.63.03-1.69.03-2.94-1.29-2.92-2.87.09-6.36.05-12.72.03-19.07,0-2.18,1.99-4.42,4.37-4.58,1.19-.08,2.38-.17,3.71-.27,0-1.62,0-3.29,0-5.04m21.41-4.84c.55.49,1.05,1.07,1.67,1.44,4.59,2.75,9.21,5.47,13.84,8.17.36.21.82.34,1.24.34,3.45.03,6.9-.05,10.34.03,3.38.08,6.77-3.28,6.69-6.62-.06-2.49-.12-4.98.03-7.46.09-1.52-.37-2.34-1.75-3.12-5.67-3.19-11.25-6.54-16.87-9.83-2.92-1.71-5.84-3.44-8.77-5.14-2.33-1.35-4.84-2.1-7.45-1.09-2.15.84-4.17,2-6.2,3.11-3.53,1.93-7.02,3.95-10.53,5.92-1.83,1.03-3.67,2.03-5.49,3.06-.25.14-.6.35-.64.58-.14.69-.11,1.41.49,1.91.51.43,1.06.7,1.82.46,5.75-1.76,11.51-3.47,17.25-5.24,1.57-.48,3.01-.88,4.59.1,3.73,2.31,7.54,4.49,11.29,6.77.71.43,1.46.97,1.88,1.65.67,1.07.36,2.43-.55,3.22-.84.72-2.09,1.02-3.38.29-1.56-.88-3.1-1.8-4.62-2.73-1.39-.85-2.9-.84-4.02.06-1.25,1-1.56,2.4-.85,4.11m28.58,33.36c1.51-.43,3.01-.88,4.53-1.29.48-.13.63-.35.67-.85.21-2.39-1.58-3.87-3.81-3.86-9.89.04-19.78.03-29.67,0-.62,0-1.34-.22-1.84-.57-1.04-.74-1.3-1.98-.87-3.16.36-.98,1.48-1.69,2.71-1.7,2.47,0,4.93.02,7.4-.01,1.23-.01,2.16-.6,2.76-1.67.62-1.1.56-2.19-.12-3.25-.78-1.23-2.05-1.54-3.38-1.54-8.04-.02-16.08-.01-24.13,0-.69,0-1.38.12-2.07.16-2.44.16-4.91,2.62-4.74,5.41.08,1.27.07,2.54,0,3.81-.14,2.68,2,5.36,4.59,6.03,1.65.43,3.36.63,4.98,1.12,5.99,1.8,11.95,3.71,17.93,5.52,3,.91,6.08,1.03,9.11.22,5.27-1.4,10.52-2.9,15.91-4.37Z"/><path class="i" d="m195.71,40.25c.97-.17,1.87-.32,2.78-.43.16-.02.48.15.5.27.41,2.55.8,5.11,1.18,7.67.01.08-.03.16-.08.41-1.74.26-3.53.57-5.33.78-1.21.14-2.45.23-3.67.17-4.7-.2-8.88-1.67-12-5.32-1.96-2.29-3.18-4.95-3.09-8.01.11-3.43,1.02-6.61,3.64-9.05,2.09-1.94,4.65-3.1,7.44-3.59,2.74-.49,5.54-.67,8.31-1.04,2.67-.36,5.39-.53,7.9-1.67,1.16-.53,2.19-1.19,2.47-2.56.34-1.64-.13-3.06-1.18-4.31-1.08-1.29-2.59-1.84-4.21-2.08-2.53-.37-5.03-.16-7.5.49-2.7.7-4.37,2.64-4.61,5.37-.05.51-.16,1.02-.25,1.63h-11.98c-.07-1.38.17-2.79.57-4.18,1.37-4.7,4.68-7.55,9.16-9.25,2.84-1.08,5.79-1.63,8.84-1.68,1.95-.03,3.9-.18,5.85-.15,1.32.02,2.63.26,4.06.41.71-.96,1.47-2.02,2.27-3.05.18-.23.5-.49.76-.49,4.04-.03,8.07-.01,12.11,0,.05,0,.1.04.29.12-1.65,2.5-3.29,4.98-4.91,7.43.67,1.01,1.36,1.97,1.95,2.98.73,1.28,1.02,2.72,1.03,4.17.03,10.72.01,21.45.01,32.17,0,.19-.02.38-.03.64h-12v-19.76c-1.34.39-2.6.83-3.89,1.11-1.1.24-2.24.32-3.36.47-2.46.33-4.98.46-7.38,1.05-3.87.95-4.59,4.69-2.94,7.54.74,1.28,2.1,1.7,3.46,1.83,1.24.12,2.51-.02,3.84-.08Z"/><path class="i" d="m147.38,49.15c-4.22-.08-8.26-.66-11.96-2.61-3.89-2.04-6.58-5.17-8.2-9.2-1.09-2.71-1.73-5.52-1.88-8.43-.08-1.56-.15-3.12-.22-4.74h21.02v8.14h-8.64c-.21,1.38.35,2.6,1.06,3.73,1.65,2.61,4.14,3.76,7.2,3.83,2.51.06,4.9-.32,7.1-1.6,2.52-1.47,3.92-3.73,4.76-6.38.76-2.39.86-4.88.66-7.34-.3-3.56-1.53-6.75-4.35-9.18-1.35-1.16-2.96-1.87-4.68-2.18-2.23-.39-4.48-.39-6.67.34-2.72.91-4.49,2.75-5.3,5.45-.22.74-.56,1.01-1.39,1-3.3-.06-6.61-.02-10-.02-.12-1.74.21-3.36.8-4.93,1.66-4.41,5.03-7.07,9.28-8.86,3.16-1.33,6.45-2.04,9.87-2.31,4.69-.37,9.07.6,13.16,2.84,5.43,2.98,8.78,7.56,10.45,13.41.94,3.3,1.09,6.68.58,10.03-.64,4.23-2.21,8.16-4.95,11.55-2.61,3.23-5.95,5.36-9.99,6.49-2.5.7-5.05,1-7.72.97Z"/><path class="i" d="m82.29,43.84v-12.22h11.41v8.09c2.02,0,3.95.07,5.87-.02,1.77-.08,3.55-.22,5.29-.54,1.36-.25,2.7-.76,3.17-2.32.37-1.24-.27-2.76-1.52-3.61-1.58-1.07-3.39-1.58-5.23-1.98-4.12-.9-8.33-1.4-12.32-2.83-2.59-.93-4.91-2.26-6.46-4.55-1.54-2.27-1.91-4.81-1.6-7.53.25-2.24,1.02-4.25,2.38-6.01,1.88-2.42,4.47-3.91,7.32-4.95,2.53-.92,5.16-1.33,7.86-1.53,4.3-.31,8.44.24,12.48,1.7,2.52.91,4.7,2.33,6.54,4.26.31.32.56.6.07.99-2.49,1.98-4.96,3.97-7.45,5.95-.12.1-.29.15-.45.23-1.36-1.71-3.01-3.03-5.11-3.69-3.45-1.08-6.86-1.05-10.09.75-1.29.72-2.09,1.85-1.91,3.39.17,1.46,1.24,2.3,2.51,2.7,2.28.71,4.61,1.3,6.95,1.8,3.78.8,7.6,1.42,11.09,3.18,3.19,1.61,5.46,4.01,6.11,7.54.6,3.3.37,6.56-1.51,9.51-1.6,2.51-4.1,3.8-6.85,4.63-2.52.76-5.12,1.15-7.77,1.19-5.12.06-10.24.12-15.36.18-1.76.02-3.53,0-5.43,0v-4.31Z"/><path class="i" d="m160.55,73.75c-1.77,1.09-3.7,1.48-5.78,1.45-3.08-.05-6.16-.01-9.32-.01v-21.67c.23-.02.44-.04.66-.04,3.03,0,6.06-.09,9.08.04,1.32.06,2.7.39,3.92.9,1.81.75,2.68,2.25,2.74,4.24.07,2.16-.7,3.78-2.69,4.77-.24.12-.48.25-.76.4,2.68.6,4.19,2.27,4.53,5.1.58-1.25,1.11-2.34,1.6-3.46,1.45-3.28,2.88-6.56,4.32-9.84.17-.4.4-.79.51-1.2.21-.81.69-1.06,1.51-.97.75.08,1.52.07,2.27,0,.69-.06.96.24,1.22.83,2.12,4.83,4.28,9.64,6.43,14.46.54,1.21,1.07,2.42,1.75,3.6v-18.88h4.83c2.05,0,2,.03,3.06,1.74,2.68,4.36,5.4,8.69,8.24,13.24v-14.92h5.56v8.43c.06.03.13.06.19.1.58-.64,1.16-1.29,1.76-1.92,1.27-1.32,2.55-2.63,3.82-3.95.75-.78,1.47-1.58,2.23-2.36.16-.16.41-.34.62-.35,2.04-.03,4.08-.02,6.38-.02-3.36,3.45-6.56,6.74-9.87,10.14,3.51,3.82,7.01,7.62,10.66,11.58h-2.69c-.9,0-1.82-.13-2.69.03-1.42.25-2.2-.5-3-1.43-2.23-2.63-4.5-5.23-6.76-7.83-.14-.17-.32-.3-.6-.57v9.81c-.59,0-1.08,0-1.57,0-1.65,0-3.31-.03-4.96.01-.53.01-.8-.18-1.06-.6-2.94-4.72-5.88-9.44-8.83-14.15-.04-.07-.08-.13-.26-.4v15.07c-.29.03-.51.06-.72.06-2.78,0-5.55,0-8.33.01-.49,0-.72-.14-.9-.61-.49-1.3-1.05-2.57-1.6-3.87-2.69,0-5.35-.01-8.01.02-.22,0-.53.26-.62.48-.57,1.3-1.09,2.62-1.64,3.94h-5.48c.13-.41.26-.78.43-1.23.06-.15.07-.23.07-.3-.08.04-.16.09-.24.13m-6.05-2.7c.25,0,.5.02.75,0,1.44-.11,2.45-.98,2.57-2.11.15-1.44-.74-2.23-2.13-2.45-1.71-.28-3.47-.24-5.25-.33v4.9c1.33,0,2.61,0,4.05,0m-3.47-8.96c1.43-.09,2.88-.07,4.3-.3.98-.16,1.48-.99,1.48-1.9,0-.99-.43-1.62-1.43-1.96-1.62-.54-3.28-.3-4.98-.31,0,1.4-.02,2.69.02,3.98,0,.17.29.32.61.49m18.54,3.4c-.1.27-.21.55-.33.88h5.04c-.83-2.06-1.65-4.08-2.53-6.26-.77,1.89-1.46,3.57-2.17,5.38Z"/><path class="n" d="m88.79,58.38c-2.06,1.99-2.5,4.39-2.17,7.04.21,1.75.79,3.27,2.14,4.48,1.96,1.75,6.31,2.19,8.34-.12.75-.86,1.09-1.86,1.16-2.98h-4.63v-3.48h10.49c-.17,2.67-.36,5.29-1.83,7.64-1.52,2.41-3.75,3.71-6.53,4.23-2.9.54-5.74.51-8.49-.64-3.46-1.45-5.28-4.21-6.14-7.67-.91-3.69-.1-7.08,2.24-10.03,1.58-1.99,3.73-3.26,6.28-3.76,3.97-.79,7.71-.2,11.1,2.04,1.84,1.21,3,3.4,2.83,5.25h-5.17c-1.71-3.73-6.48-4.75-9.61-1.99Z"/><path class="f" d="m133.9,55.79v19.34h-5v-9.18h-9.26v9.17h-4.99v-21.61h4.93v8.03h9.28v-8.02h5.04v2.26Z"/><path class="h" d="m142.65,98.56c0,.41,0,.73,0,1.11h-2.98v-4.57c-1.14.17-2.17.33-3.2.48-.73.1-1.09.52-1.02,1.24.07.73.62.93,1.25.93.43,0,.87-.1,1.37-.16.14.67.27,1.33.42,2.04-1.46.44-2.88.48-4.22-.17-1.3-.63-1.91-2.01-1.66-3.47.2-1.18,1.19-2.11,2.65-2.38,1.11-.2,2.24-.31,3.36-.5.53-.09,1.06-.28,1.04-.96-.02-.68-.47-1.07-1.09-1.16-.55-.08-1.13-.08-1.67,0-.92.15-1.29.83-1.35,1.71h-2.86c-.38-1.63,1.17-3.28,3.17-3.56.99-.14,1.99-.13,2.99-.2.21-.01.56.02.62-.1.59-1.04,1.58-.66,2.45-.71.39-.02.77,0,1.34,0-.38.62-.71,1.11-.98,1.62-.09.17-.09.43-.05.63.12.54.41,1.07.42,1.61.05,2.15.02,4.31.02,6.55Z"/><path class="o" d="m214.21,89.3c.94,0,1.81,0,2.72,0,.22,1.45-.13,2.64-1.32,3.59,2.2,1.93,1.11,4.44,1.43,6.79h-3.22c0-1.25,0-2.48,0-3.71,0-.99-.63-1.75-1.62-1.85-.71-.07-1.44-.01-2.24-.01v5.56h-3.13v-10.32h3.08v2.44c.79,0,1.49.07,2.17-.01,1.13-.13,1.66-.79,1.75-1.92.01-.19.2-.37.38-.55Z"/><path class="m" d="m79.01,99.73c-4.22.87-7.7-.77-7.25-5.92,1.57,0,3.15-.01,4.74.02.13,0,.35.32.37.51.05.49.02.98.02,1.56h-2.13c.33,1.72,2.33,2.33,3.71,1.21,1.41-1.14,1.55-3.91.21-5.1-1.18-1.06-3.41-.99-4,.61-.05.15-.31.3-.48.31-.75.03-1.5.01-2.32.01-.1-1.26.43-2.13,1.4-2.81,1.9-1.33,4.92-1.55,6.87-.24,2.68,1.8,3.11,5.42,1.41,7.99-.61.92-1.49,1.43-2.54,1.85Z"/><path class="l" d="m107.05,92.1c.18,1.41.36,2.77.44,4.13.07,1.13.01,2.26.01,3.45h-2.81c-.01-.27-.04-.56-.04-.85,0-1.58.04-3.15-.02-4.73-.05-1.43-1.18-2.52-2.69-2.44-1.31.07-2.5.76-2.46,2.45h2.9v2.28h-3.1v3.28h-2.58s-.08-.05-.08-.09c.03-2.23-.09-4.48.16-6.68.25-2.21,2.55-3.89,4.84-3.92,2.43-.03,4.34.8,5.43,3.14Z"/><path class="g" d="m40.54,96.42c-.75,0-1.41,0-2.16,0v3.26h-2.68c0-.56,0-1.13,0-1.69,0-1.55-.17-3.12.06-4.63.61-3.93,4.63-5.23,7.75-3.9,1.91.81,2.9,2.33,3.07,4.25.17,1.97.04,3.96.04,5.99h-2.84c0-1.78-.02-3.54,0-5.3.01-.92-.32-1.67-1.05-2.22-.84-.63-1.77-.67-2.73-.27-.94.39-1.38,1.11-1.48,2.19h3v2.32c-.3,0-.6,0-.98,0Z"/><path class="g" d="m163.35,94.45c-.03-2.27.88-3.99,2.87-4.95,1.94-.94,3.97-.78,5.79.37,1.47.93,2.19,2.41,2.25,4.12.07,1.87.01,3.75.01,5.69h-2.84c0-.38,0-.78,0-1.18,0-1.46,0-2.93,0-4.39,0-1.16-1.05-2.44-2.61-2.47-1.47-.03-2.57,1.03-2.56,2.47h2.9v2.29h-3.09v3.29h-2.71v-5.22Z"/><path class="o" d="m21.73,94.44v5.25h-2.64c-.03-.37-.06-.74-.1-1.22-.25.27-.44.53-.67.72-1.57,1.28-5.53,1.15-6.19-1.66-.13-.55-.29-1.12-.3-1.68-.04-2.07-.01-4.14-.01-6.21,0-.13.03-.26.06-.44h2.78c0,1.74,0,3.44,0,5.14,0,.44.04.88.13,1.3.31,1.53.78,1.91,2.14,1.79,1.11-.09,1.92-1.03,1.93-2.28.01-1.74,0-3.48,0-5.22,0-.22.02-.44.04-.72h2.81v5.23Z"/><path class="k" d="m.53,95.98c.11-.18.21-.36.32-.36.81-.02,1.61-.01,2.49-.01v2.07c1.01-.11,1.93-.17,2.85-.32.21-.03.53-.34.52-.52,0-.25-.21-.63-.42-.71-.8-.29-1.63-.48-2.45-.7-.53-.14-1.08-.23-1.6-.41-1.09-.37-1.89-1.03-2.05-2.24-.16-1.25.38-2.24,1.39-2.9,2.09-1.37,5.41-1.23,7.39.41.1.08.14.23.16.27-.21.25-.37.51-.6.69-1.12.92-1.07.78-2.37.29-.73-.28-1.66-.1-2.5-.03-.18.02-.45.45-.45.69,0,.23.26.59.48.66.75.25,1.55.37,2.31.6.81.25,1.64.5,2.38.89,1.03.54,1.29,1.56,1.2,2.61-.11,1.19-.77,2.08-1.97,2.37-.93.23-1.91.34-2.87.39-1.37.06-2.74.02-4.22.02,0-1.27,0-2.47,0-3.76Z"/><path class="k" d="m155.15,96.28c-.45,2.02-1.85,3.68-4.48,3.47-.75-.06-1.51.02-2.27-.03-.23-.01-.6-.17-.65-.33-.78-2.48-1.51-4.98-2.29-7.59.89,0,1.67-.03,2.44.02.18.01.41.31.48.52.5,1.53,1,3.06,1.42,4.6.22.8.68.77,1.24.48,1.16-.59,1.28-1.72,1.36-2.81.04-.59-.07-1.2-.21-1.79-.29-1.26-.92-1.73-2.23-1.73-.25,0-.5,0-.83,0-.12-.57-.23-1.11-.34-1.63,2.57-1.36,5.51-.12,6.26,2.61.37,1.36.42,2.74.09,4.19Z"/><path class="h" d="m182.53,96.76c-.07-.72-.61-.86-1.11-1-.71-.2-1.45-.32-2.16-.54-1.62-.5-2.4-1.42-2.44-2.83-.04-1.24.82-2.41,2.18-3,2.09-.9,5.02-.32,6.07,1.26-.6.53-1.21,1.07-1.87,1.65-.6-.65-1.24-1.15-2.23-1.04-.65.07-1.21.21-1.28.9-.06.66.58.79,1.07.94.94.29,1.92.49,2.84.82,1.2.43,1.74,1.36,1.77,2.61.02,1.28-.56,2.26-1.7,2.78-2.11.95-4.23.95-6.29-.23-.17-.1-.33-.21-.47-.34-.12-.11-.22-.24-.41-.45.63-.58,1.24-1.15,1.69-1.56.92.44,1.62.87,2.38,1.13.83.28,1.68-.23,1.95-1.1Z"/><path class="k" d="m128.04,93.73c2.5.82,2.7,3.35,1.54,4.73-.56.67-1.58,1.17-2.46,1.33-1.52.28-3.11.35-4.54-.51-.07-.04-.16-.05-.23-.1-1.03-.67-1.03-.8-.12-1.61.33-.3.61-.65.84-.9.79.41,1.44.9,2.17,1.08.52.13,1.2-.02,1.71-.25.65-.29.59-1.23-.07-1.5-.63-.26-1.31-.4-1.97-.59-.34-.1-.68-.21-1.03-.3-1.13-.28-1.9-.93-2.06-2.1-.19-1.41.21-2.61,1.55-3.35,2.09-1.17,5.28-.74,6.55,1.01-.59.53-1.2,1.08-1.84,1.65-.63-.8-1.4-1.24-2.34-1.01-.42.1-.76.51-1.14.78.27.32.48.81.83.94.81.31,1.7.45,2.61.69Z"/><path class="d" d="m66.71,89.18c.83.42,1.59.81,2.56,1.31-.83.73-1.44,1.27-2.09,1.85-.63-.89-1.46-1.24-2.42-1.02-.39.09-.7.52-1.05.8.26.31.45.77.78.9.74.29,1.54.4,2.31.6,2.74.71,3.19,3.23,1.92,4.82-.56.7-1.61,1.22-2.52,1.38-1.48.26-3.06.34-4.46-.52-.43-.26-.8-.62-1.25-.98.7-.63,1.3-1.16,1.78-1.59.78.4,1.46.91,2.23,1.09.51.12,1.19-.13,1.69-.4.54-.29.42-1.17-.17-1.38-.87-.32-1.79-.52-2.69-.78-1.11-.32-2.13-.82-2.35-2.05-.22-1.21-.07-2.41,1.03-3.19,1.17-.84,2.5-1.25,3.98-.93.22.05.44.05.73.1Z"/><path class="o" d="m24.13,90.86c1.11-1.56,2.96-2.1,4.95-1.77,2.06.34,3.16,1.52,3.68,3.4.03.11.06.22.06.32,0,2.26,0,4.52,0,6.85h-2.85c0-1.79.02-3.55-.01-5.31,0-.51-.09-1.03-.23-1.53-.19-.69-.7-1.09-1.42-1.21-.83-.14-1.39.29-1.84.89-.14.19-.2.44-.33.74-.6-.15-1.22-.37-1.86-.44-.93-.32-.82-.49-.57-1.08.12-.28.25-.55.41-.87Z"/><path class="o" d="m90.87,94.15c-.28-.79-.37-1.72-.89-2.17-1.05-.92-2.3-.33-2.95,1.26-.63-.15-1.25-.36-1.9-.44-.79-.1-.71-.51-.53-1.05.75-2.26,2.94-2.96,4.93-2.76,2.14.21,3.6,1.32,4.09,3.47.09.4.09.82.09,1.23,0,1.98,0,3.97,0,6h-2.85c0-1.83,0-3.64,0-5.53Z"/><path class="j" d="m117.88,90.87c.56.95.76,1.91.74,2.95-.04,1.93-.01,3.86-.01,5.85h-2.85c0-.38,0-.78,0-1.18-.05-1.73.01-3.47-.19-5.18-.16-1.31-.67-1.66-1.63-1.7-.93-.04-1.52.43-2,1.62-.65-.15-1.29-.36-1.96-.45-.75-.1-.66-.51-.5-1,.77-2.46,3.31-3.01,5.14-2.79,1.32.16,2.42.75,3.26,1.87Z"/><path class="o" d="m189.73,93.24c-.68-.16-1.28-.37-1.9-.45-.69-.09-.66-.45-.5-.94.81-2.47,3.08-3.06,5.11-2.86,1.67.17,2.99.99,3.67,2.58.17.39.34.83.34,1.25.04,2.04.02,4.09.02,6.14,0,.22-.02.43-.03.71h-2.81c0-.52.01-1.06,0-1.6-.04-1.59,0-3.2-.17-4.78-.13-1.22-.65-1.62-1.57-1.68-.97-.07-1.57.39-1.98,1.51-.02.05-.07.08-.17.11Z"/><path class="g" d="m52.09,91.81c-.42.46-.78.9-1.19,1.4-.53-.13-1.19-.32-1.86-.43-.62-.1-.62-.4-.46-.87.63-1.94,1.64-2.65,3.78-2.9,2.4-.28,4.62.71,5.26,3.44.1.45.1.92.1,1.39.01,1.93,0,3.86,0,5.84h-2.85c0-.33,0-.68,0-1.02-.06-1.84-.01-3.68-.21-5.51-.15-1.36-1.18-1.82-2.57-1.34Z"/><path class="e" d="m157.97,95.43v-6.08h2.77v10.32h-2.77v-4.24Z"/><path class="k" d="m217.88,83.98c.69,0,1.29,0,1.94,0v1.92c-.62.08-1.26.1-1.86.25-.46.11-1.06.27-1.26.61-.4.68-.92.76-1.58.71-.33-.03-.66,0-.98,0-.36-1.38.34-2.57,1.88-3.13.56-.2,1.18-.24,1.86-.35Z"/><path class="k" d="m202.42,98.92c-2.08-.16-3.18-.94-3.51-2.48-.04-.18,0-.38,0-.66.65,0,1.29,0,1.92,0,.12,0,.3.07.34.15.49,1.01,1.42.98,2.34.98h.98v1.99c-.67,0-1.33,0-2.07,0Z"/><path class="j" d="m203.73,91.46c.29.01.51.03.77.04v1.86c-1.25-.1-2.5-.12-3.71-.33-.98-.17-2.06-1.4-1.84-2.89.6,0,1.21-.01,1.82,0,.14,0,.36.08.4.19.48,1.14,1.57.93,2.55,1.13Z"/></g></svg>