<?xml version="1.0" encoding="utf-8"?>
<!-- Generator: Adobe Illustrator 15.1.0, SVG Export Plug-In . SVG Version: 6.00 Build 0)  -->
<!DOCTYPE svg PUBLIC "-//W3C//DTD SVG 1.1//EN" "http://www.w3.org/Graphics/SVG/1.1/DTD/svg11.dtd">
<svg version="1.1" id="Layer_1" xmlns="http://www.w3.org/2000/svg" xmlns:xlink="http://www.w3.org/1999/xlink" x="0px" y="0px"
	 width="90px" height="90px" viewBox="0 0 90 90" enable-background="new 0 0 90 90" xml:space="preserve">
<g>
	<polygon fill="#6D6E71" points="7.888,22.833 12.192,22.833 12.192,46.822 26.426,46.822 26.426,50.953 7.888,50.953 	"/>
	<polygon fill="#6D6E71" points="33.544,22.833 37.851,22.833 37.851,34.167 51.03,34.167 51.03,22.833 55.335,22.833 
		55.335,50.953 51.03,50.953 51.03,38.211 37.762,38.211 37.762,50.953 33.544,50.953 	"/>
	<path fill="#8A8C8E" d="M75.771,50.85H63.644V23.171h11.558l0.51-0.011c0.493,0,0.957,0.042,1.369,0.116l0.096,0.024
		c3.586,0.695,6.259,3.405,6.259,6.642c0,2.35-1.409,4.427-3.559,5.654l0.598,0.174c2.717,0.989,4.677,3.777,4.677,7.063
		c0,3.259-1.927,6.026-4.611,7.039l-0.481,0.228c-0.881,0.325-2.156,0.584-3.587,0.702c-0.423,0.038-0.833,0.056-1.229,0.063
		 M75.241,37.583h-8.169v10.105h8.258h0.57c0.748,0.043,2.187-0.32,2.187-0.32c2.176-0.772,3.701-2.577,3.701-4.684
		c0-2.714-2.536-4.929-5.732-5.073L75.241,37.583z M75.525,34.31c2.479,0,4.482-1.8,4.482-4.02c0-2.141-1.865-3.892-4.218-4.014
		l-1.339-0.029h-7.379v8.083h7.559L75.525,34.31z"/>
	<g>
		<rect x="43.471" y="59.905" fill="#9B9F94" width="5.93" height="10.26"/>
		<rect x="49.401" y="59.905" fill="#F7941E" width="5.934" height="10.26"/>
		<rect x="37.539" y="59.905" fill="#FBC410" width="5.93" height="10.26"/>
		<rect x="31.61" y="59.905" fill="#0086C3" width="5.932" height="10.26"/>
		<rect x="25.68" y="59.905" fill="#F58468" width="5.932" height="10.26"/>
		<rect x="19.75" y="59.905" fill="#903F98" width="5.932" height="10.26"/>
		<rect x="13.818" y="59.905" fill="#49BFC7" width="5.931" height="10.26"/>
		<rect x="7.888" y="59.905" fill="#D6DC29" width="5.933" height="10.26"/>
	</g>
</g>
</svg>
