<?xml version="1.0" encoding="UTF-8"?><svg id="b" xmlns="http://www.w3.org/2000/svg" width="240" height="75" viewBox="0 0 240 75"><defs><style>.f{fill:none;}.g{fill:#462279;}.h{fill:#feac00;}</style></defs><g id="c"><g id="d"><rect class="f" width="240" height="75"/></g><g id="e"><path class="g" d="M8.47,44.06c-.63-.47-1.41-.78-2.51-.78H1.57v2.66h3.29c.94.16.78,0,.94.47h.16-.16c-.16.31-1.25,1.25-1.25,2.66v17.34h3.61v-16.87h0c0-.94,1.25-1.56,1.25-3.28,0-1.09-.31-1.72-.94-2.19ZM64.63,59.06l-3.76-10.94h-2.98l-3.76,10.94-2.98-10.94h-3.61l4.86,18.13h2.67l4.24-12.03,4.24,12.03h2.82l4.86-18.13h-3.61l-2.98,10.94ZM82.67,49.84c-1.25-1.41-3.14-2.03-5.33-2.03-1.73,0-3.14.31-4.24.94h-.31v3.91l.78-.47c1.1-.78,2.35-1.09,3.61-1.09s2.2.31,2.82,1.09c.63.63.94,1.72.94,2.97v11.09h3.61v-11.87h0c-.16-1.72-.78-3.44-1.88-4.53ZM24.94,49.53c-.63-.62-1.41-.94-2.35-1.25-.94-.31-1.88-.47-2.82-.47-1.88,0-3.45.47-4.86,1.56v-1.25h-3.45v18.12h3.61v-11.72c0-.94.47-1.72,1.41-2.34,1.1-.78,2.2-1.09,3.29-1.09,1.25,0,2.04.31,2.82.94.63.63.94,1.41.94,2.5v11.72h3.61v-12.03c0-.94-.16-1.88-.47-2.66-.47-.78-.94-1.41-1.73-2.03ZM45.49,48.12h-3.61v13.91c-1.25.78-2.67,1.25-4.24,1.25s-2.82-.31-3.61-.78c-.78-.63-1.25-1.25-1.25-2.19,0-.47.16-.78.31-1.09s.47-.63.78-.94c.31-.31.78-.47,1.25-.63.47-.16.94-.16,1.41-.16h2.35v-3.44h-2.67c-2.2,0-2.98-.63-2.98-1.41s.47-1.25,2.35-1.25c.16,0,.47,0,.94.16.47,0,1.1.16,1.73.31h.63v-3.28l-.31-.16c-.94-.31-2.04-.47-2.98-.47-.78,0-1.57.16-2.35.31-.63.16-1.25.47-1.88.94-.63.47-.94.94-1.25,1.41-.31.63-.47,1.25-.47,1.88,0,.94.31,1.72.94,2.34.31.47.78.78,1.25.94-.47.31-.94.78-1.41,1.25-.78.94-1.1,2.03-1.1,3.12h0c0,1.72.78,3.28,2.2,4.37,1.57,1.25,3.61,1.88,6.27,1.88h0c3.29,0,5.8-.94,7.69-2.97h0v-15.31ZM99.61,42.03v2.81h14.43v-3.12h-14.43s0,.31,0,.31ZM145.88,62.03c-1.25.78-2.67,1.25-4.24,1.25s-2.82-.31-3.61-.78c-.78-.63-1.25-1.25-1.25-2.19,0-.47.16-.78.31-1.09s.47-.63.78-.94c.31-.31.78-.47,1.25-.63.47-.16.94-.16,1.41-.16h2.35v-3.44h-2.67c-2.2,0-2.82-.63-2.98-1.41,0-.78.47-1.25,2.35-1.25.16,0,.47,0,.94.16.47,0,.94.16,1.73.31h.63v-3.28l-.31-.16c-.94-.31-2.04-.47-2.98-.47-.78,0-1.57.16-2.35.31s-1.41.47-1.88.94c-.63.47-.94.94-1.25,1.41-.31.63-.47,1.25-.47,1.88h0c0,.78.31,1.72.94,2.34.31.47.78.78,1.25.94-.47.31-.94.78-1.41,1.25-.78.94-1.1,2.03-1.1,3.12h0c0,1.72.78,3.28,2.2,4.53,1.57,1.25,3.61,1.88,6.27,1.88h0c3.29,0,5.8-.94,7.69-2.97h0v-.16h0v-15.16h-3.61v13.75ZM147.14,40.62c-1.1,0-1.88.16-2.35.78s-.63,1.25-.63,2.19v1.25h3.61v-.94q0-.47.94-.62h1.73v-2.66h-3.29ZM110.43,59.84c0,.94-.31,1.72-1.25,2.34-.94.78-1.88,1.09-2.98,1.09s-1.88-.31-2.51-.78-.94-1.25-.94-2.19v-6.09h0c0-2.03-.78-3.59-2.35-4.69-1.41-1.09-3.29-1.56-5.49-1.56-3.29,0-5.96,1.41-7.69,3.91h0v14.38h6.12v-3.28h-2.67v-10.16c.94-1.09,2.35-1.72,4.24-1.72,1.25,0,2.35.31,3.14.94.78.63,1.1,1.25,1.1,2.5v5.78h0c0,1.88.63,3.44,1.88,4.53,1.25,1.25,2.98,1.72,4.86,1.72,1.73,0,3.14-.47,4.55-1.56v1.25h3.61v-18.12h-3.61v11.72ZM127.69,52.34l3.14-2.81-2.98-1.72-6.75,5.78.94.16c4.39.78,6.27,2.5,6.27,5.31,0,1.25-.47,2.19-1.41,2.97s-2.2,1.25-3.92,1.25h-.47c-.31,0-.78,0-1.1-.16-.31,0-.78-.16-1.1-.31v-14.84h-3.61v17.34l.31.16c1.73.63,3.76,1.09,5.65,1.09h.16c2.67,0,4.86-.78,6.59-2.19,1.57-1.25,2.35-3.12,2.35-5.31h0c.16-3.12-1.41-5.31-4.08-6.72Z"/><rect class="g" x="163.92" width="76.08" height="75"/><path class="h" d="M231.37,59.22l-8-31.25-21.33-19.38-21.33,19.22-8,31.25,15.22,7.19h12.08v-10.78s-22.27,11.72-16.47-14.53c1.88-8.75,12.24-20.31,18.04-23.59.16-.16.31-.16.47-.31h0c5.8,2.81,16.63,14.84,18.67,23.91,5.8,26.25-16.47,14.53-16.47,14.53v10.78h12.08l15.06-7.03Z"/><path class="g" d="M102.9,16.25l.63-3.91s-3.14-1.25-7.22-1.25-9.41,1.25-9.41,7.03c0,5.16,5.96,6.09,7.37,6.41,1.41.31,5.65,1.09,5.65,3.44s-3.14,2.97-5.02,2.97c-4.39-.16-7.53-2.03-7.53-2.03l-.63,4.06s3.14,1.88,8,1.88,9.57-2.03,9.57-6.87c0-4.38-2.67-6.09-7.06-7.03-5.02-1.09-5.96-1.87-5.96-3.28s1.41-2.66,5.02-2.66c3.29.16,6.59,1.25,6.59,1.25Z"/><path class="g" d="M125.65,16.09l.63-3.91s-2.82-1.09-6.43-1.09-12.08.78-12.08,12.03,8.47,11.87,11.92,11.87,6.75-1.41,6.75-1.41l-.63-3.75s-2.35,1.09-5.8,1.09c-3.14,0-7.37-.62-7.37-7.97s4.08-7.81,7.37-7.81c2.67,0,5.65.94,5.65.94Z"/><path class="g" d="M146.04,22.5v-.16s3.45-.47,3.45-5-4.39-5.78-8.31-5.78h-10.51v23.13h10.98c5.18,0,8.94-1.72,8.94-6.56s-3.92-5.47-4.55-5.63ZM135.22,15.31h6.12c2.04,0,3.61.62,3.61,2.81,0,2.03-1.1,2.97-3.61,2.97h-6.12v-5.78ZM141.8,30.78h-6.59v-6.25h6.75c1.73,0,3.92.31,3.92,2.97,0,2.81-1.88,3.28-4.08,3.28Z"/></g></g></svg>