<?xml version="1.0" encoding="UTF-8"?><svg id="b" xmlns="http://www.w3.org/2000/svg" width="240" height="120" viewBox="0 0 240 120"><defs><style>.d{fill:#f68b1f;}.e{fill:#0050f0;}.f{fill:#002d63;}</style></defs><g id="c"><path class="e" d="m72,72c0,13.25-10.75,24-24,24s-24-10.75-24-24v-24h24v-24h-24V0H0v72c0,26.51,21.49,48,48,48s48-21.49,48-48h-24Z"/><path class="d" d="m144,72c0,13.25-10.75,24-24,24s-24-10.75-24-24v-24h24v-24h-24V0h-24v72c0,26.51,21.49,48,48,48s48-21.49,48-48h-24Z"/><path class="f" d="m192,96c-13.25,0-24-10.75-24-24s10.74-24,24-24,24,10.75,24,24-10.74,24-24,24m0-72c-8.74,0-16.94,2.34-24,6.42V0h-24v72c0,26.51,21.49,48,48,48s48-21.49,48-48-21.49-48-48-48"/></g></svg>